<svg class="prefix__icon" viewBox="0 0 1024 1024" xmlns="http://www.w3.org/2000/svg" width="64" height="64"><defs><style/></defs><path d="M996.693 409.6l20.48-20.48c6.827-6.827 6.827-17.067 0-23.893-3.413-6.827-116.053-153.6-307.2-174.08-17.066-34.134-85.333-170.667-221.866-174.08-34.134 0-78.507 6.826-126.294 23.893 71.68 23.893 174.08 71.68 215.04 157.013 30.72-3.413 61.44-6.826 88.747-6.826 10.24-3.414 17.067 3.413 17.067 13.653s-6.827 17.067-17.067 17.067c-221.867 0-563.2 153.6-563.2 358.4 0 211.626 122.88 256 126.293 256 10.24 3.413 13.654 13.653 10.24 20.48-3.413 6.826-10.24 10.24-17.066 10.24h-6.827c-3.413 0-146.773-54.614-146.773-286.72 0-136.534 119.466-242.347 262.826-307.2-51.2-37.547-163.84-92.16-228.693-119.467-37.547 23.893-71.68 47.787-98.987 71.68C0 232.107 0 238.933 0 245.76 3.413 252.587 10.24 256 17.067 256c27.306 0 64.853 17.067 105.813 40.96C71.68 351.573 0 450.56 0 580.267c0 153.6 61.44 235.52 122.88 303.786 40.96 40.96 92.16 58.027 143.36 75.094 37.547 13.653 78.507 23.893 116.053 47.786 3.414 3.414 6.827 3.414 10.24 3.414 3.414 0 10.24-3.414 13.654-6.827 6.826-6.827 6.826-17.067 0-23.893-6.827-6.827-61.44-71.68 0-126.294 61.44-58.026 71.68-194.56 75.093-201.386 0-6.827-3.413-13.654-10.24-17.067-6.827-3.413-13.653-3.413-20.48 3.413-68.267 61.44-157.013 129.707-177.493 133.12-23.894 0-68.267-54.613-68.267-102.4 0-44.373 58.027-136.533 119.467-136.533 40.96 0 92.16 23.893 136.533 44.373 10.24 3.414 17.067 6.827 23.893 10.24-17.066-20.48-34.133-44.373-61.44-68.266-6.826-6.827-6.826-17.067 0-23.894 6.827-6.826 17.067-6.826 23.894 0C484.693 532.48 552.96 614.4 556.373 658.773v6.827c0 3.413 0 3.413-3.413 6.827 0 0 0 3.413-3.413 3.413s-3.414 6.827-3.414 13.653c3.414 6.827 10.24 10.24 17.067 10.24 40.96 0 68.267-30.72 85.333-68.266H768c136.533 0 249.173-170.667 252.587-177.494 3.413-6.826 3.413-17.066-3.414-20.48l-20.48-23.893zM747.52 501.76c6.827 6.827 6.827 17.067 0 23.893-3.413 3.414-6.827 3.414-10.24 3.414-3.413 0-10.24-3.414-13.653-6.827 0 0-37.547-40.96-37.547-129.707 0-98.986 44.373-102.4 51.2-102.4 6.827 0 13.653 6.827 13.653 17.067s-6.826 17.067-13.653 17.067c0 0-20.48 10.24-20.48 68.266 0 75.094 30.72 105.814 30.72 109.227zm105.813-75.093c-20.48 0-34.133-13.654-34.133-34.134s13.653-34.133 34.133-34.133 34.134 13.653 34.134 34.133-13.654 34.134-34.134 34.134z"/><path d="M303.787 58.027c-54.614 20.48-112.64 44.373-163.84 75.093 64.853 30.72 184.32 85.333 225.28 122.88 58.026-23.893 119.466-44.373 177.493-54.613-51.2-85.334-187.733-129.707-238.933-143.36z"/></svg>
